<svg xmlns="http://www.w3.org/2000/svg" viewBox="0 0 208 66"><path d="M50.111 50.319H16.1v-46.8a1.86 1.86 0 00-1.851-1.868h-12.6A1.7 1.7 0 000 3.517v58.84a1.859 1.859 0 001.85 1.868h48.261a1.86 1.86 0 001.851-1.868V51.983a1.7 1.7 0 00-1.851-1.664zm53.983-39.33h-12.4a1.859 1.859 0 00-1.849 1.869v49.5a1.858 1.858 0 001.849 1.867h12.4a1.859 1.859 0 001.851-1.867v-49.5a1.86 1.86 0 00-1.851-1.869zm76.95 3.309a26.41 26.41 0 0116.987 6.462 1.766 1.766 0 001.172.45 1.2 1.2 0 001.173-.437l7.187-8.812A2.021 2.021 0 00208 10.5a1.972 1.972 0 00-.694-1.34A42.187 42.187 0 00181.044 0a38.635 38.635 0 00-25.876 9.347 31.232 31.232 0 00-10.628 23.565 31.749 31.749 0 0010.413 23.635A37.237 37.237 0 00180.31 66a48.4 48.4 0 0026.431-8.294 1.98 1.98 0 00.808-1.612V37.746A1.566 1.566 0 00205.916 36h-11.333c-1.013 0-1.432.871-1.432 1.945V48.49a28.308 28.308 0 01-12.016 3.121c-11.417 0-20.361-8.215-20.361-18.7 0-10.437 8.904-18.611 20.27-18.611z" fill="#fff"/></svg>