<svg xmlns="http://www.w3.org/2000/svg" width="208px" height="66px" viewBox="0 0 208 66">
  <path d="M253.111,818.319H219.1v-46.8a1.86,1.86,0,0,0-1.851-1.868h-12.6A1.7,1.7,0,0,0,203,771.517v58.84a1.859,1.859,0,0,0,1.85,1.868h48.261a1.86,1.86,0,0,0,1.851-1.868V819.983A1.7,1.7,0,0,0,253.111,818.319Zm53.983-39.33h-12.4a1.859,1.859,0,0,0-1.849,1.869v49.5a1.858,1.858,0,0,0,1.849,1.867h12.4a1.859,1.859,0,0,0,1.851-1.867v-49.5A1.86,1.86,0,0,0,307.094,778.989Zm76.95,3.309a26.41,26.41,0,0,1,16.987,6.462,1.766,1.766,0,0,0,1.172.45,1.2,1.2,0,0,0,1.173-.437l7.187-8.812A2.021,2.021,0,0,0,411,778.5a1.972,1.972,0,0,0-.694-1.34A42.187,42.187,0,0,0,384.044,768a38.635,38.635,0,0,0-25.876,9.347,31.232,31.232,0,0,0-10.628,23.565,31.749,31.749,0,0,0,10.413,23.635A37.237,37.237,0,0,0,383.31,834a48.4,48.4,0,0,0,26.431-8.294,1.98,1.98,0,0,0,.808-1.612V805.746A1.566,1.566,0,0,0,408.916,804H397.583c-1.013,0-1.432.871-1.432,1.945v10.545a28.308,28.308,0,0,1-12.016,3.121c-11.417,0-20.361-8.215-20.361-18.7C363.774,790.474,372.678,782.3,384.044,782.3Z" fill="#ffffff" transform="translate(-203 -768)"></path>
</svg>